<svg width="31" height="30" viewBox="0 0 31 30" fill="none" xmlns="http://www.w3.org/2000/svg">
<path d="M8 2.5L4.25 7.5V25C4.25 25.663 4.51339 26.2989 4.98223 26.7678C5.45107 27.2366 6.08696 27.5 6.75 27.5H24.25C24.913 27.5 25.5489 27.2366 26.0178 26.7678C26.4866 26.2989 26.75 25.663 26.75 25V7.5L23 2.5H8Z" stroke="#F2F3F3" stroke-width="2" stroke-linecap="round" stroke-linejoin="round"/>
<path d="M20.5 12.5C20.5 13.8261 19.9732 15.0979 19.0355 16.0355C18.0979 16.9732 16.8261 17.5 15.5 17.5C14.1739 17.5 12.9021 16.9732 11.9645 16.0355C11.0268 15.0979 10.5 13.8261 10.5 12.5" stroke="#F2F3F3" stroke-width="2" stroke-linecap="round" stroke-linejoin="round"/>
<path d="M4.25 7.5H26.75" stroke="#F2F3F3" stroke-width="2" stroke-linecap="round" stroke-linejoin="round"/>
</svg>
