<svg width="31" height="31" viewBox="0 0 31 31" fill="none" xmlns="http://www.w3.org/2000/svg">
<path d="M25.5 10.5L18 3.92501C17.3125 3.31006 16.4224 2.97009 15.5 2.97009C14.5776 2.97009 13.6875 3.31006 13 3.92501L5.5 10.5C5.10296 10.8551 4.78612 11.2907 4.57059 11.7778C4.35505 12.2649 4.24576 12.7924 4.25 13.325V24.25C4.25 25.2446 4.64508 26.1984 5.34835 26.9017C6.05161 27.6049 7.00543 28 8 28H23C23.9946 28 24.9484 27.6049 25.6516 26.9017C26.3549 26.1984 26.75 25.2446 26.75 24.25V13.3125C26.7525 12.782 26.6423 12.2569 26.4268 11.7721C26.2114 11.2873 25.8955 10.8537 25.5 10.5ZM18 25.5H13V19.25C13 18.9185 13.1317 18.6005 13.3661 18.3661C13.6005 18.1317 13.9185 18 14.25 18H16.75C17.0815 18 17.3995 18.1317 17.6339 18.3661C17.8683 18.6005 18 18.9185 18 19.25V25.5ZM24.25 24.25C24.25 24.5815 24.1183 24.8995 23.8839 25.1339C23.6495 25.3683 23.3315 25.5 23 25.5H20.5V19.25C20.5 18.2554 20.1049 17.3016 19.4016 16.5984C18.6984 15.8951 17.7446 15.5 16.75 15.5H14.25C13.2554 15.5 12.3016 15.8951 11.5983 16.5984C10.8951 17.3016 10.5 18.2554 10.5 19.25V25.5H8C7.66848 25.5 7.35053 25.3683 7.11611 25.1339C6.88169 24.8995 6.75 24.5815 6.75 24.25V13.3125C6.75022 13.135 6.78824 12.9596 6.86152 12.798C6.9348 12.6363 7.04166 12.4921 7.175 12.375L14.675 5.81251C14.9031 5.61211 15.1964 5.50159 15.5 5.50159C15.8036 5.50159 16.0969 5.61211 16.325 5.81251L23.825 12.375C23.9583 12.4921 24.0652 12.6363 24.1385 12.798C24.2118 12.9596 24.2498 13.135 24.25 13.3125V24.25Z" fill="#F2F3F3"/>
</svg>
