<svg width="28" height="28" viewBox="0 0 28 28" fill="none" xmlns="http://www.w3.org/2000/svg">
<path d="M8.46032 22.0803L4.93811 25.0412C4.81056 25.1484 4.65505 25.217 4.48986 25.2388C4.32467 25.2607 4.15668 25.2349 4.00563 25.1646C3.85458 25.0942 3.72676 24.9822 3.6372 24.8417C3.54764 24.7012 3.50006 24.538 3.50006 24.3714V7.00005C3.50006 6.76799 3.59225 6.54543 3.75634 6.38134C3.92044 6.21724 4.143 6.12505 4.37506 6.12505H23.6251C23.8571 6.12505 24.0797 6.21724 24.2438 6.38134C24.4079 6.54543 24.5001 6.76799 24.5001 7.00005V21.0001C24.5001 21.2321 24.4079 21.4547 24.2438 21.6188C24.0797 21.7829 23.8571 21.8751 23.6251 21.8751H9.02336C8.81738 21.8751 8.61799 21.9477 8.46032 22.0803Z" stroke="#154962" stroke-width="2" stroke-linecap="round" stroke-linejoin="round"/>
<path d="M8.74988 15.3125C9.47475 15.3125 10.0624 14.7249 10.0624 14C10.0624 13.2751 9.47475 12.6875 8.74988 12.6875C8.025 12.6875 7.43738 13.2751 7.43738 14C7.43738 14.7249 8.025 15.3125 8.74988 15.3125Z" fill="#154962"/>
<path d="M14.0001 15.3125C14.7249 15.3125 15.3126 14.7249 15.3126 14C15.3126 13.2751 14.7249 12.6875 14.0001 12.6875C13.2752 12.6875 12.6876 13.2751 12.6876 14C12.6876 14.7249 13.2752 15.3125 14.0001 15.3125Z" fill="#154962"/>
<path d="M19.2502 15.3125C19.9751 15.3125 20.5627 14.7249 20.5627 14C20.5627 13.2751 19.9751 12.6875 19.2502 12.6875C18.5254 12.6875 17.9377 13.2751 17.9377 14C17.9377 14.7249 18.5254 15.3125 19.2502 15.3125Z" fill="#154962"/>
<path d="M8.74988 15.3125C9.47475 15.3125 10.0624 14.7249 10.0624 14C10.0624 13.2751 9.47475 12.6875 8.74988 12.6875C8.025 12.6875 7.43738 13.2751 7.43738 14C7.43738 14.7249 8.025 15.3125 8.74988 15.3125Z" fill="#154962"/>
<path d="M14.0001 15.3125C14.7249 15.3125 15.3126 14.7249 15.3126 14C15.3126 13.2751 14.7249 12.6875 14.0001 12.6875C13.2752 12.6875 12.6876 13.2751 12.6876 14C12.6876 14.7249 13.2752 15.3125 14.0001 15.3125Z" fill="#154962"/>
<path d="M19.2502 15.3125C19.9751 15.3125 20.5627 14.7249 20.5627 14C20.5627 13.2751 19.9751 12.6875 19.2502 12.6875C18.5254 12.6875 17.9377 13.2751 17.9377 14C17.9377 14.7249 18.5254 15.3125 19.2502 15.3125Z" fill="#154962"/>
</svg>
