<svg width="293" height="57" viewBox="0 0 293 57" fill="none" xmlns="http://www.w3.org/2000/svg">
<g filter="url(#filter0_d_1_2699)">
<rect x="4" width="285" height="49" rx="18" fill="#E97B0C" shape-rendering="crispEdges"/>
<path d="M119.172 34H106.551V16.5508H119.172V19.9258H111.027V22.9375H118.586V26.3125H111.027V30.625H119.172V34ZM135.941 34H131.699V27.4727C131.699 26.9414 131.672 26.4141 131.617 25.8906C131.562 25.3594 131.469 24.9688 131.336 24.7188C131.18 24.4297 130.949 24.2188 130.645 24.0859C130.348 23.9531 129.93 23.8867 129.391 23.8867C129.008 23.8867 128.617 23.9492 128.219 24.0742C127.828 24.1992 127.402 24.3984 126.941 24.6719V34H122.723V20.8398H126.941V22.293C127.691 21.707 128.41 21.2578 129.098 20.9453C129.793 20.6328 130.562 20.4766 131.406 20.4766C132.828 20.4766 133.938 20.8906 134.734 21.7188C135.539 22.5469 135.941 23.7852 135.941 25.4336V34ZM148.246 33.8828C147.793 34 147.312 34.0898 146.805 34.1523C146.297 34.2227 145.676 34.2578 144.941 34.2578C143.301 34.2578 142.078 33.9258 141.273 33.2617C140.477 32.5977 140.078 31.4609 140.078 29.8516V23.6992H138.344V20.8398H140.078V17.0781H144.297V20.8398H148.246V23.6992H144.297V28.3633C144.297 28.8242 144.301 29.2266 144.309 29.5703C144.316 29.9141 144.379 30.2227 144.496 30.4961C144.605 30.7695 144.797 30.9883 145.07 31.1523C145.352 31.3086 145.758 31.3867 146.289 31.3867C146.508 31.3867 146.793 31.3398 147.145 31.2461C147.504 31.1523 147.754 31.0664 147.895 30.9883H148.246V33.8828ZM160.316 24.8594H159.941C159.762 24.7969 159.473 24.75 159.074 24.7188C158.676 24.6875 158.344 24.6719 158.078 24.6719C157.477 24.6719 156.945 24.7109 156.484 24.7891C156.023 24.8672 155.527 25 154.996 25.1875V34H150.777V20.8398H154.996V22.7734C155.926 21.9766 156.734 21.4492 157.422 21.1914C158.109 20.9258 158.742 20.793 159.32 20.793C159.469 20.793 159.637 20.7969 159.824 20.8047C160.012 20.8125 160.176 20.8242 160.316 20.8398V24.8594ZM170.676 30.5664V27.8242C170.105 27.8711 169.488 27.9375 168.824 28.0234C168.16 28.1016 167.656 28.1953 167.312 28.3047C166.891 28.4375 166.566 28.6328 166.34 28.8906C166.121 29.1406 166.012 29.4727 166.012 29.8867C166.012 30.1602 166.035 30.3828 166.082 30.5547C166.129 30.7266 166.246 30.8906 166.434 31.0469C166.613 31.2031 166.828 31.3203 167.078 31.3984C167.328 31.4688 167.719 31.5039 168.25 31.5039C168.672 31.5039 169.098 31.418 169.527 31.2461C169.965 31.0742 170.348 30.8477 170.676 30.5664ZM170.676 32.6055C170.449 32.7773 170.168 32.9844 169.832 33.2266C169.496 33.4688 169.18 33.6602 168.883 33.8008C168.469 33.9883 168.039 34.125 167.594 34.2109C167.148 34.3047 166.66 34.3516 166.129 34.3516C164.879 34.3516 163.832 33.9648 162.988 33.1914C162.145 32.418 161.723 31.4297 161.723 30.2266C161.723 29.2656 161.938 28.4805 162.367 27.8711C162.797 27.2617 163.406 26.7812 164.195 26.4297C164.977 26.0781 165.945 25.8281 167.102 25.6797C168.258 25.5312 169.457 25.4219 170.699 25.3516V25.2812C170.699 24.5547 170.402 24.0547 169.809 23.7812C169.215 23.5 168.34 23.3594 167.184 23.3594C166.488 23.3594 165.746 23.4844 164.957 23.7344C164.168 23.9766 163.602 24.1641 163.258 24.2969H162.871V21.1211C163.316 21.0039 164.039 20.8672 165.039 20.7109C166.047 20.5469 167.055 20.4648 168.062 20.4648C170.461 20.4648 172.191 20.8359 173.254 21.5781C174.324 22.3125 174.859 23.4688 174.859 25.0469V34H170.676V32.6055ZM188.277 24.8594H187.902C187.723 24.7969 187.434 24.75 187.035 24.7188C186.637 24.6875 186.305 24.6719 186.039 24.6719C185.438 24.6719 184.906 24.7109 184.445 24.7891C183.984 24.8672 183.488 25 182.957 25.1875V34H178.738V20.8398H182.957V22.7734C183.887 21.9766 184.695 21.4492 185.383 21.1914C186.07 20.9258 186.703 20.793 187.281 20.793C187.43 20.793 187.598 20.7969 187.785 20.8047C187.973 20.8125 188.137 20.8242 188.277 20.8398V24.8594Z" fill="#E6E8E9"/>
</g>
<defs>
<filter id="filter0_d_1_2699" x="0" y="0" width="293" height="57" filterUnits="userSpaceOnUse" color-interpolation-filters="sRGB">
<feFlood flood-opacity="0" result="BackgroundImageFix"/>
<feColorMatrix in="SourceAlpha" type="matrix" values="0 0 0 0 0 0 0 0 0 0 0 0 0 0 0 0 0 0 127 0" result="hardAlpha"/>
<feOffset dy="4"/>
<feGaussianBlur stdDeviation="2"/>
<feComposite in2="hardAlpha" operator="out"/>
<feColorMatrix type="matrix" values="0 0 0 0 0 0 0 0 0 0 0 0 0 0 0 0 0 0 0.25 0"/>
<feBlend mode="normal" in2="BackgroundImageFix" result="effect1_dropShadow_1_2699"/>
<feBlend mode="normal" in="SourceGraphic" in2="effect1_dropShadow_1_2699" result="shape"/>
</filter>
</defs>
</svg>
